<svg width="87" height="71" viewBox="0 0 87 71" fill="none" xmlns="http://www.w3.org/2000/svg">
<path d="M86.9003 43.3846C84.008 20.2462 62.7978 4.82051 52.5542 0L48.939 7.23077L67.0157 36.1538C48.2156 34.7077 44.7209 47.6026 45.3236 54.2308C48.939 68.6923 60.9902 70.5 67.0157 70.5C84.3696 70.5 87.5029 52.4231 86.9003 43.3846Z" fill="#F9F9F9"/>
<path d="M41.6396 43.3846C38.7473 20.2462 17.537 4.82051 7.29345 0L3.67826 7.23077L21.755 36.1538C2.95484 34.7077 -0.539818 47.6026 0.0628777 54.2308C3.67826 68.6923 15.7294 70.5 21.755 70.5C39.1088 70.5 42.2422 52.4231 41.6396 43.3846Z" fill="#F9F9F9"/>
</svg>
