<svg width="65" height="21" viewBox="0 0 65 21" fill="none" xmlns="http://www.w3.org/2000/svg">
<path d="M46.5554 15.7092C45.3705 15.7092 44.41 16.6698 44.41 17.8546C44.41 19.0395 45.3706 20 46.5554 20C47.7403 20 48.7008 19.0395 48.7008 17.8546C48.7009 16.6698 47.7403 15.7092 46.5554 15.7092ZM46.5554 19.0465C45.8972 19.0465 45.3636 18.5129 45.3636 17.8547C45.3636 17.1964 45.8972 16.6628 46.5554 16.6628C47.2137 16.6628 47.7473 17.1964 47.7473 17.8547C47.7474 18.5129 47.2137 19.0465 46.5554 19.0465Z" fill="#181D19"/>
<path d="M55.6139 15.7092C54.429 15.7092 53.4685 16.6698 53.4685 17.8546C53.4685 19.0395 54.4291 20 55.6139 20C56.7988 20 57.7593 19.0395 57.7593 17.8546C57.7593 16.6698 56.7988 15.7092 55.6139 15.7092ZM55.6139 19.0465C54.9556 19.0465 54.422 18.5129 54.422 17.8547C54.422 17.1964 54.9556 16.6628 55.6139 16.6628C56.2722 16.6628 56.8058 17.1964 56.8058 17.8547C56.8058 18.5129 56.2722 19.0465 55.6139 19.0465Z" fill="#181D19"/>
<path d="M60.4529 3.19432C60.3537 3.08587 60.2178 3.01797 60.0715 3.0036L44.5531 2.78906L44.124 1.47796C43.8217 0.601505 43.001 0.00980987 42.0739 0H40.4768C40.2134 0 40 0.213445 40 0.47676C40 0.740075 40.2134 0.95352 40.4768 0.95352H42.0739C42.5923 0.964972 43.0487 1.29782 43.2181 1.78786L46.2456 10.9178L46.0072 11.4661C45.7413 12.1516 45.8212 12.9233 46.2217 13.5399C46.6185 14.1456 47.2859 14.5194 48.0096 14.5411H57.2826C57.5459 14.5411 57.7593 14.3277 57.7593 14.0644C57.7593 13.8011 57.5459 13.5876 57.2826 13.5876H48.0096C47.6009 13.5774 47.2247 13.3624 47.0084 13.0155C46.7945 12.6728 46.7505 12.2507 46.8892 11.8713L47.0799 11.4422L57.1157 10.3933C58.218 10.2719 59.1248 9.47013 59.3803 8.39091L60.5245 3.59949C60.5761 3.46152 60.5487 3.30634 60.4529 3.19432ZM58.4506 8.17641C58.2958 8.87113 57.706 9.38358 56.9965 9.43983L47.0799 10.4649L44.863 3.74258L59.4756 3.95712L58.4506 8.17641Z" fill="#181D19"/>
<circle cx="61" cy="4" r="4" fill="#DC2825"/>
<path d="M17.6613 9.08064C17.6613 13.8196 13.8196 17.6613 9.08064 17.6613C4.34168 17.6613 0.5 13.8196 0.5 9.08064C0.5 4.34168 4.34168 0.5 9.08064 0.5C13.8196 0.5 17.6613 4.34168 17.6613 9.08064Z" stroke="#181D19"/>
<path d="M19.9999 20.0001L15.2343 15.2344" stroke="#181D19" stroke-linecap="round"/>
</svg>
